<svg xmlns="http://www.w3.org/2000/svg" xmlns:ev="http://www.w3.org/2001/xml-events" xmlns:xlink="http://www.w3.org/1999/xlink" width="521" height="521" baseProfile="full" version="1.1"><polygon fill="red" stroke="red" points="97.664 104.189 73.499 103.6 86.186 97.919"/><polygon fill="red" stroke="red" points="121.836 104.779 97.664 104.189 110.318 98.506"/><polygon fill="red" stroke="red" points="73.499 103.6 84.983 124.748 73.524 118.443"/><polygon fill="red" stroke="red" points="109.158 125.341 121.836 104.779 121.801 119.625"/><polygon fill="red" stroke="red" points="84.983 124.748 96.476 145.911 84.994 139.571"/><polygon fill="red" stroke="red" points="96.476 145.911 109.158 125.341 109.139 140.165"/><polygon fill="red" stroke="red" points="73.499 103.6 97.664 104.189 84.973 109.889"/><polygon fill="red" stroke="red" points="84.983 124.748 73.499 103.6 84.973 109.889"/><polygon fill="red" stroke="red" points="97.664 104.189 121.836 104.779 109.178 110.48"/><polygon fill="red" stroke="red" points="121.836 104.779 109.158 125.341 109.178 110.48"/><polygon fill="red" stroke="red" points="96.476 145.911 84.983 124.748 96.479 131.073"/><polygon fill="red" stroke="red" points="109.158 125.341 96.476 145.911 96.479 131.073"/><polygon fill="red" stroke="red" points="84.952 80.061 96.483 116.198 84.973 109.889"/><polygon fill="red" stroke="red" points="96.483 116.198 59.481 121.337 84.973 109.889"/><polygon fill="red" stroke="red" points="96.483 116.198 109.216 80.649 109.178 110.48"/><polygon fill="red" stroke="red" points="132.316 123.122 96.483 116.198 109.178 110.48"/><polygon fill="red" stroke="red" points="71.012 142.587 96.483 116.198 96.479 131.073"/><polygon fill="red" stroke="red" points="97.679 59.436 73.425 58.852 86.159 53.214"/><polygon fill="red" stroke="red" points="96.483 116.198 119.582 143.783 96.479 131.073"/><polygon fill="red" stroke="red" points="121.94 60.021 97.679 59.436 110.38 53.797"/><polygon fill="red" stroke="red" points="73.425 58.852 84.952 80.061 73.45 73.804"/><polygon fill="red" stroke="red" points="109.216 80.649 121.94 60.021 121.905 74.977"/><polygon fill="red" stroke="red" points="59.481 121.337 35.217 120.743 48.015 115.012"/><polygon fill="red" stroke="red" points="35.217 120.743 46.737 141.989 35.289 135.63"/><polygon fill="red" stroke="red" points="109.216 80.649 96.483 116.198 96.49 86.338"/><polygon fill="red" stroke="red" points="96.483 116.198 84.952 80.061 96.49 86.338"/><polygon fill="red" stroke="red" points="59.481 121.337 96.483 116.198 70.984 127.683"/><polygon fill="red" stroke="red" points="96.483 116.198 71.012 142.587 70.984 127.683"/><polygon fill="red" stroke="red" points="46.737 141.989 58.266 163.25 46.795 156.855"/><polygon fill="red" stroke="red" points="156.608 123.717 132.316 123.122 144.98 117.384"/><polygon fill="red" stroke="red" points="96.483 116.198 132.316 123.122 119.614 128.876"/><polygon fill="red" stroke="red" points="119.582 143.783 96.483 116.198 119.614 128.876"/><polygon fill="red" stroke="red" points="58.266 163.25 71.012 142.587 71.039 157.454"/><polygon fill="red" stroke="red" points="73.425 58.852 97.679 59.436 84.941 65.092"/><polygon fill="red" stroke="red" points="84.952 80.061 73.425 58.852 84.941 65.092"/><polygon fill="red" stroke="red" points="143.878 144.381 156.608 123.717 156.531 138.611"/><polygon fill="red" stroke="red" points="97.679 59.436 121.94 60.021 109.235 65.679"/><polygon fill="red" stroke="red" points="119.582 143.783 131.142 165.054 119.55 158.653"/><polygon fill="red" stroke="red" points="121.94 60.021 109.216 80.649 109.235 65.679"/><polygon fill="red" stroke="red" points="131.142 165.054 143.878 144.381 143.816 159.253"/><polygon fill="red" stroke="red" points="35.217 120.743 59.481 121.337 46.68 127.087"/><polygon fill="red" stroke="red" points="46.737 141.989 35.217 120.743 46.68 127.087"/><polygon fill="red" stroke="red" points="58.266 163.25 46.737 141.989 58.222 148.369"/><polygon fill="red" stroke="red" points="71.012 142.587 58.266 163.25 58.222 148.369"/><polygon fill="red" stroke="red" points="132.316 123.122 156.608 123.717 143.94 129.473"/><polygon fill="red" stroke="red" points="156.608 123.717 143.878 144.381 143.94 129.473"/><polygon fill="red" stroke="red" points="131.142 165.054 119.582 143.783 131.188 150.168"/><polygon fill="red" stroke="red" points="143.878 144.381 131.142 165.054 131.188 150.168"/><polygon fill="red" stroke="red" points="96.494 71.353 72.167 70.765 84.941 65.092"/><polygon fill="red" stroke="red" points="120.829 71.941 96.494 71.353 109.235 65.679"/><polygon fill="red" stroke="red" points="84.92 35.044 96.494 71.353 84.941 65.092"/><polygon fill="red" stroke="red" points="96.494 71.353 109.274 35.627 109.235 65.679"/><polygon fill="red" stroke="red" points="83.728 92.043 96.494 71.353 96.49 86.338"/><polygon fill="red" stroke="red" points="96.494 71.353 108.066 92.635 96.49 86.338"/><polygon fill="red" stroke="red" points="46.622 112.147 58.179 133.45 46.68 127.087"/><polygon fill="red" stroke="red" points="97.695 14.353 73.351 13.772 86.132 8.179"/><polygon fill="red" stroke="red" points="58.179 133.45 70.956 112.742 70.984 127.683"/><polygon fill="red" stroke="red" points="82.524 134.048 58.179 133.45 70.984 127.683"/><polygon fill="red" stroke="red" points="122.045 14.933 97.695 14.353 110.442 8.757"/><polygon fill="red" stroke="red" points="73.351 13.772 84.92 35.044 73.376 28.836"/><polygon fill="red" stroke="red" points="58.179 133.45 20.966 138.635 46.68 127.087"/><polygon fill="red" stroke="red" points="58.179 133.45 69.744 154.769 58.222 148.369"/><polygon fill="red" stroke="red" points="131.235 135.245 106.876 134.647 119.614 128.876"/><polygon fill="red" stroke="red" points="119.646 113.932 131.235 135.245 119.614 128.876"/><polygon fill="red" stroke="red" points="109.274 35.627 122.045 14.933 122.01 29.999"/><polygon fill="red" stroke="red" points="131.235 135.245 144.002 114.527 143.94 129.473"/><polygon fill="red" stroke="red" points="32.533 159.983 58.179 133.45 58.222 148.369"/><polygon fill="red" stroke="red" points="118.462 155.972 131.235 135.245 131.188 150.168"/><polygon fill="red" stroke="red" points="72.167 70.765 96.494 71.353 83.716 77.043"/><polygon fill="red" stroke="red" points="96.494 71.353 83.728 92.043 83.716 77.043"/><polygon fill="red" stroke="red" points="167.3 142.236 131.235 135.245 143.94 129.473"/><polygon fill="red" stroke="red" points="96.494 71.353 120.829 71.941 108.084 77.633"/><polygon fill="red" stroke="red" points="108.066 92.635 96.494 71.353 108.084 77.633"/><polygon fill="red" stroke="red" points="60.614 49.502 59.313 61.418 22.031 66.519"/><polygon fill="red" stroke="red" points="59.313 61.418 60.614 49.502 95.304 68.289"/><polygon fill="red" stroke="red" points="109.274 35.627 96.494 71.353 96.502 41.272"/><polygon fill="red" stroke="red" points="96.494 71.353 84.92 35.044 96.502 41.272"/><polygon fill="red" stroke="red" points="131.235 135.245 154.513 163 131.188 150.168"/><polygon fill="red" stroke="red" points="58.179 133.45 46.622 112.147 58.135 118.495"/><polygon fill="red" stroke="red" points="20.966 138.635 -3.397 138.035 9.512 132.254"/><polygon fill="red" stroke="red" points="70.956 112.742 58.179 133.45 58.135 118.495"/><polygon fill="red" stroke="red" points="133.586 51.257 132.507 63.184 95.304 68.289"/><polygon fill="red" stroke="red" points="73.351 13.772 97.695 14.353 84.91 19.964"/><polygon fill="red" stroke="red" points="84.92 35.044 73.351 13.772 84.91 19.964"/><polygon fill="red" stroke="red" points="-3.397 138.035 8.159 159.38 -3.278 152.965"/><polygon fill="red" stroke="red" points="132.507 63.184 133.586 51.257 168.643 70.061"/><polygon fill="red" stroke="red" points="22.296 111.553 33.62 87.88 33.694 102.908"/><polygon fill="red" stroke="red" points="22.031 66.519 33.62 87.88 22.296 111.553"/><polygon fill="red" stroke="red" points="58.179 133.45 82.524 134.048 69.715 139.834"/><polygon fill="red" stroke="red" points="69.744 154.769 58.179 133.45 69.715 139.834"/><polygon fill="red" stroke="red" points="97.695 14.353 122.045 14.933 109.294 20.546"/><polygon fill="red" stroke="red" points="131.235 135.245 119.646 113.932 131.281 120.286"/><polygon fill="red" stroke="red" points="122.045 14.933 109.274 35.627 109.294 20.546"/><polygon fill="red" stroke="red" points="22.296 111.553 33.694 102.908 56.824 130.651"/><polygon fill="red" stroke="red" points="144.002 114.527 131.235 135.245 131.281 120.286"/><polygon fill="red" stroke="red" points="20.966 138.635 58.179 133.45 32.457 145.036"/><polygon fill="red" stroke="red" points="58.179 133.45 32.533 159.983 32.457 145.036"/><polygon fill="red" stroke="red" points="8.159 159.38 19.723 180.74 8.264 174.289"/><polygon fill="red" stroke="red" points="106.876 134.647 131.235 135.245 118.493 141.035"/><polygon fill="red" stroke="red" points="19.723 180.74 32.533 159.983 32.608 174.893"/><polygon fill="red" stroke="red" points="131.235 135.245 118.462 155.972 118.493 141.035"/><polygon fill="red" stroke="red" points="191.715 142.837 167.3 142.236 179.975 136.443"/><polygon fill="red" stroke="red" points="131.235 135.245 167.3 142.236 154.589 148.046"/><polygon fill="red" stroke="red" points="154.513 163 131.235 135.245 154.589 148.046"/><polygon fill="red" stroke="red" points="168.365 115.123 155.755 105.885 168.643 70.061"/><polygon fill="red" stroke="red" points="168.365 115.123 143.015 111.647 155.755 105.885"/><polygon fill="red" stroke="red" points="130.193 132.453 143.015 111.647 168.365 115.123"/><polygon fill="red" stroke="red" points="56.959 175.498 68.438 152.06 68.469 167.025"/><polygon fill="red" stroke="red" points="56.824 130.651 68.438 152.06 56.959 175.498"/><polygon fill="red" stroke="red" points="178.931 163.604 191.715 142.837 191.594 157.778"/><polygon fill="red" stroke="red" points="-3.397 138.035 20.966 138.635 8.053 144.434"/><polygon fill="red" stroke="red" points="8.159 159.38 -3.397 138.035 8.053 144.434"/><polygon fill="red" stroke="red" points="154.513 163 166.142 184.381 154.438 177.918"/><polygon fill="red" stroke="red" points="56.959 175.498 68.469 167.025 91.693 194.926"/><polygon fill="#FFF" stroke="#FFF" points="109.313 5.427 84.899 4.847 97.7 -.75"/><polygon fill="red" stroke="red" points="166.142 184.381 178.931 163.604 178.826 178.524"/><polygon fill="red" stroke="red" points="84.899 4.847 96.505 26.175 84.91 19.964"/><polygon fill="red" stroke="red" points="130.057 177.313 117.336 168.236 130.193 132.453"/><polygon fill="red" stroke="red" points="19.723 180.74 8.159 159.38 19.632 165.815"/><polygon fill="red" stroke="red" points="130.057 177.313 104.532 174.092 117.336 168.236"/><polygon fill="red" stroke="red" points="96.505 26.175 109.313 5.427 109.294 20.546"/><polygon fill="red" stroke="red" points="91.693 194.926 104.532 174.092 130.057 177.313"/><polygon fill="red" stroke="red" points="32.533 159.983 19.723 180.74 19.632 165.815"/><polygon fill="red" stroke="red" points="96.505 26.175 59.229 31.236 84.91 19.964"/><polygon fill="red" stroke="red" points="46.448 67.109 22.031 66.519 59.313 61.418"/><polygon fill="red" stroke="red" points="59.313 61.418 95.304 68.289 70.873 67.699"/><polygon fill="red" stroke="red" points="132.604 32.993 96.505 26.175 109.294 20.546"/><polygon fill="red" stroke="red" points="70.845 52.61 96.505 26.175 96.502 41.272"/><polygon fill="red" stroke="red" points="96.505 26.175 119.776 53.788 96.502 41.272"/><polygon fill="red" stroke="red" points="167.3 142.236 191.715 142.837 179.037 148.648"/><polygon fill="red" stroke="red" points="119.743 68.88 95.304 68.289 132.507 63.184"/><polygon fill="red" stroke="red" points="191.715 142.837 178.931 163.604 179.037 148.648"/><polygon fill="red" stroke="red" points="132.507 63.184 168.643 70.061 144.189 69.47"/><polygon fill="red" stroke="red" points="45.218 109.258 56.824 130.651 33.694 102.908"/><polygon fill="red" stroke="red" points="166.142 184.381 154.513 163 166.232 169.447"/><polygon fill="red" stroke="red" points="178.931 163.604 166.142 184.381 166.232 169.447"/><polygon fill="red" stroke="red" points="96.505 26.175 84.899 4.847 96.509 11.042"/><polygon fill="#FFF" stroke="#FFF" points="84.899 4.847 109.313 5.427 96.509 11.042"/><polygon fill="red" stroke="red" points="19.541 150.853 -4.897 150.25 8.053 144.434"/><polygon fill="red" stroke="red" points="59.229 31.236 34.785 30.651 47.678 25.008"/><polygon fill="red" stroke="red" points="109.313 5.427 96.505 26.175 96.509 11.042"/><polygon fill="red" stroke="red" points="7.842 114.431 19.541 150.853 8.053 144.434"/><polygon fill="#FFF" stroke="#FFF" points="-4.897 150.25 6.694 171.665 -4.776 165.211"/><polygon fill="red" stroke="red" points="34.785 30.651 46.39 52.021 34.857 45.759"/><polygon fill="red" stroke="red" points="155.832 90.849 168.643 70.061 155.755 105.885"/><polygon fill="red" stroke="red" points="19.541 150.853 32.306 115.03 32.457 145.036"/><polygon fill="red" stroke="red" points="6.694 171.665 19.541 150.853 19.632 165.815"/><polygon fill="red" stroke="red" points="55.551 157.899 19.541 150.853 32.457 145.036"/><polygon fill="red" stroke="red" points="33.62 87.88 22.031 66.519 45.158 94.214"/><polygon fill="red" stroke="red" points="59.229 31.236 96.505 26.175 70.817 37.484"/><polygon fill="red" stroke="red" points="96.505 26.175 70.845 52.61 70.817 37.484"/><polygon fill="red" stroke="red" points="46.39 52.021 58.004 73.407 46.448 67.109"/><polygon fill="red" stroke="red" points="157.077 33.578 132.604 32.993 145.362 27.343"/><polygon fill="red" stroke="red" points="96.505 26.175 132.604 32.993 119.808 38.658"/><polygon fill="red" stroke="red" points="119.776 53.788 96.505 26.175 119.808 38.658"/><polygon fill="red" stroke="red" points="20.697 93.619 -3.757 93.024 9.2 87.287"/><polygon fill="red" stroke="red" points="19.541 150.853 42.689 178.748 19.632 165.815"/><polygon fill="red" stroke="red" points="70.873 67.699 95.304 68.289 58.004 73.407"/><polygon fill="red" stroke="red" points="58.004 73.407 70.845 52.61 70.873 67.699"/><polygon fill="red" stroke="red" points="80.061 173.485 91.693 194.926 68.469 167.025"/><polygon fill="red" stroke="red" points="45.158 94.214 20.697 93.619 33.62 87.88"/><polygon fill="red" stroke="red" points="-3.757 93.024 7.842 114.431 -3.637 108.065"/><polygon fill="red" stroke="red" points="117.365 153.268 130.193 132.453 117.336 168.236"/><polygon fill="red" stroke="red" points="144.252 54.377 157.077 33.578 156.998 48.694"/><polygon fill="red" stroke="red" points="119.776 53.788 131.422 75.184 119.743 68.88"/><polygon fill="red" stroke="red" points="190.811 155.081 166.322 154.476 179.037 148.648"/><polygon fill="red" stroke="red" points="154.74 118.025 166.322 154.476 154.589 148.046"/><polygon fill="red" stroke="red" points="22.031 66.519 46.448 67.109 56.687 85.47"/><polygon fill="red" stroke="red" points="56.687 85.47 45.158 94.214 22.031 66.519"/><polygon fill="red" stroke="red" points="45.158 94.214 56.824 130.651 45.218 109.258"/><polygon fill="red" stroke="red" points="32.306 115.03 45.158 94.214 45.218 109.258"/><polygon fill="red" stroke="red" points="144.189 69.47 168.643 70.061 131.422 75.184"/><polygon fill="red" stroke="red" points="131.422 75.184 144.252 54.377 144.189 69.47"/><polygon fill="red" stroke="red" points="166.322 154.476 129.054 159.716 154.589 148.046"/><polygon fill="red" stroke="red" points="56.687 85.47 46.448 67.109 58.004 73.407"/><polygon fill="red" stroke="red" points="166.322 154.476 179.249 118.624 179.037 148.648"/><polygon fill="red" stroke="red" points="166.322 154.476 177.988 175.915 166.232 169.447"/><polygon fill="red" stroke="red" points="143.077 96.596 168.643 70.061 155.832 90.849"/><polygon fill="#FFF" stroke="#FFF" points="177.988 175.915 190.811 155.081 190.691 170.053"/><polygon fill="red" stroke="red" points="56.687 85.47 58.004 73.407 95.304 68.289"/><polygon fill="red" stroke="red" points="-4.897 150.25 19.541 150.853 6.586 156.688"/><polygon fill="#FFF" stroke="#FFF" points="6.694 171.665 -4.897 150.25 6.586 156.688"/><polygon fill="red" stroke="red" points="34.785 30.651 59.229 31.236 46.332 36.897"/><polygon fill="red" stroke="red" points="46.39 52.021 34.785 30.651 46.332 36.897"/><polygon fill="red" stroke="red" points="95.304 68.289 119.743 68.88 130.33 87.258"/><polygon fill="red" stroke="red" points="140.721 181.184 166.322 154.476 166.232 169.447"/><polygon fill="red" stroke="red" points="167.575 97.193 143.077 96.596 155.832 90.849"/><polygon fill="red" stroke="red" points="19.541 150.853 6.694 171.665 6.586 156.688"/><polygon fill="red" stroke="red" points="68.438 152.06 56.824 130.651 80.044 158.504"/><polygon fill="red" stroke="red" points="130.33 87.258 119.743 68.88 131.422 75.184"/><polygon fill="red" stroke="red" points="143.015 111.647 130.193 132.453 143.077 96.596"/><polygon fill="red" stroke="red" points="192.08 97.789 167.575 97.193 180.296 91.444"/><polygon fill="red" stroke="red" points="143.077 96.596 154.74 118.025 143.015 111.647"/><polygon fill="red" stroke="red" points="32.306 115.03 19.541 150.853 19.357 120.818"/><polygon fill="red" stroke="red" points="19.541 150.853 7.842 114.431 19.357 120.818"/><polygon fill="red" stroke="red" points="58.004 73.407 46.39 52.021 57.96 58.304"/><polygon fill="red" stroke="red" points="130.33 87.258 131.422 75.184 168.643 70.061"/><polygon fill="red" stroke="red" points="143.077 96.596 130.33 87.258 168.643 70.061"/><polygon fill="red" stroke="red" points="80.044 158.504 55.551 157.899 68.438 152.06"/><polygon fill="red" stroke="red" points="19.541 150.853 55.551 157.899 42.626 163.754"/><polygon fill="red" stroke="red" points="42.689 178.748 19.541 150.853 42.626 163.754"/><polygon fill="red" stroke="red" points="70.845 52.61 58.004 73.407 57.96 58.304"/><polygon fill="red" stroke="red" points="45.158 94.214 56.687 85.47 56.824 130.651"/><polygon fill="red" stroke="red" points="104.545 159.11 130.193 132.453 117.365 153.268"/><polygon fill="red" stroke="red" points="179.249 118.624 192.08 97.789 191.958 112.842"/><polygon fill="red" stroke="red" points="132.604 32.993 157.077 33.578 144.315 39.246"/><polygon fill="red" stroke="red" points="-3.757 93.024 20.697 93.619 7.735 99.374"/><polygon fill="red" stroke="red" points="7.842 114.431 -3.757 93.024 7.735 99.374"/><polygon fill="red" stroke="red" points="157.077 33.578 144.252 54.377 144.315 39.246"/><polygon fill="red" stroke="red" points="91.686 149.935 80.044 158.504 56.824 130.651"/><polygon fill="red" stroke="red" points="80.044 158.504 91.693 194.926 80.061 173.485"/><polygon fill="red" stroke="red" points="129.054 159.716 104.545 159.11 117.365 153.268"/><polygon fill="red" stroke="red" points="67.186 179.357 80.044 158.504 80.061 173.485"/><polygon fill="red" stroke="red" points="20.697 93.619 45.158 94.214 32.23 99.971"/><polygon fill="red" stroke="red" points="131.422 75.184 119.776 53.788 131.469 60.076"/><polygon fill="red" stroke="red" points="42.689 178.748 54.322 200.219 42.752 193.705"/><polygon fill="red" stroke="red" points="104.532 174.092 91.693 194.926 104.545 159.11"/><polygon fill="red" stroke="red" points="45.158 94.214 32.306 115.03 32.23 99.971"/><polygon fill="red" stroke="red" points="144.252 54.377 131.422 75.184 131.469 60.076"/><polygon fill="red" stroke="red" points="130.33 87.258 143.077 96.596 130.193 132.453"/><polygon fill="red" stroke="red" points="104.545 159.11 116.202 180.575 104.532 174.092"/><polygon fill="red" stroke="red" points="54.322 200.219 67.186 179.357 67.219 194.315"/><polygon fill="red" stroke="red" points="166.322 154.476 190.811 155.081 178.093 160.928"/><polygon fill="red" stroke="red" points="177.988 175.915 166.322 154.476 178.093 160.928"/><polygon fill="red" stroke="red" points="104.545 159.11 91.686 149.935 130.193 132.453"/><polygon fill="#FFF" stroke="#FFF" points="190.811 155.081 177.988 175.915 178.093 160.928"/><polygon fill="red" stroke="red" points="179.249 118.624 166.322 154.476 166.502 124.423"/><polygon fill="red" stroke="red" points="166.322 154.476 154.74 118.025 166.502 124.423"/><polygon fill="red" stroke="red" points="129.054 159.716 166.322 154.476 140.78 166.184"/><polygon fill="red" stroke="red" points="166.322 154.476 140.721 181.184 140.78 166.184"/><polygon fill="red" stroke="red" points="116.202 180.575 127.867 202.056 116.174 195.536"/><polygon fill="#FFF" stroke="#FFF" points="70.788 22.32 46.273 21.734 59.186 16.089"/><polygon fill="red" stroke="red" points="127.867 202.056 140.721 181.184 140.663 196.147"/><polygon fill="red" stroke="red" points="143.077 96.596 167.575 97.193 154.816 102.958"/><polygon fill="red" stroke="red" points="154.74 118.025 143.077 96.596 154.816 102.958"/><polygon fill="red" stroke="red" points="46.273 21.734 57.916 43.162 46.332 36.897"/><polygon fill="red" stroke="red" points="91.686 149.935 104.545 159.11 91.693 194.926"/><polygon fill="red" stroke="red" points="80.044 158.504 91.686 149.935 91.693 194.926"/><polygon fill="red" stroke="red" points="167.575 97.193 192.08 97.789 179.355 103.556"/><polygon fill="red" stroke="red" points="57.916 43.162 70.788 22.32 70.817 37.484"/><polygon fill="red" stroke="red" points="82.442 43.751 57.916 43.162 70.817 37.484"/><polygon fill="red" stroke="red" points="192.08 97.789 179.249 118.624 179.355 103.556"/><polygon fill="#FFF" stroke="#FFF" points="144.378 24.077 119.841 23.491 132.652 17.841"/><polygon fill="red" stroke="red" points="57.916 43.162 20.425 48.267 46.332 36.897"/><polygon fill="red" stroke="red" points="55.551 157.899 80.044 158.504 67.153 164.361"/><polygon fill="red" stroke="red" points="57.916 43.162 69.567 64.606 57.96 58.304"/><polygon fill="red" stroke="red" points="80.044 158.504 67.186 179.357 67.153 164.361"/><polygon fill="red" stroke="red" points="131.516 44.93 106.975 44.341 119.808 38.658"/><polygon fill="red" stroke="red" points="119.841 23.491 131.516 44.93 119.808 38.658"/><polygon fill="red" stroke="red" points="54.322 200.219 42.689 178.748 54.273 185.246"/><polygon fill="red" stroke="red" points="131.516 44.93 144.378 24.077 144.315 39.246"/><polygon fill="red" stroke="red" points="104.545 159.11 129.054 159.716 116.23 165.577"/><polygon fill="red" stroke="red" points="116.202 180.575 104.545 159.11 116.23 165.577"/><polygon fill="red" stroke="red" points="32.078 69.741 57.916 43.162 57.96 58.304"/><polygon fill="red" stroke="red" points="67.186 179.357 54.322 200.219 54.273 185.246"/><polygon fill="red" stroke="red" points="19.265 105.745 -5.264 105.146 7.735 99.374"/><polygon fill="red" stroke="red" points="118.648 65.791 131.516 44.93 131.469 60.076"/><polygon fill="red" stroke="red" points="43.801 106.344 19.265 105.745 32.23 99.971"/><polygon fill="red" stroke="red" points="7.522 69.147 19.265 105.745 7.735 99.374"/><polygon fill="#FFF" stroke="#FFF" points="-5.264 105.146 6.37 126.624 -5.141 120.218"/><polygon fill="red" stroke="red" points="167.851 51.813 131.516 44.93 144.315 39.246"/><polygon fill="red" stroke="red" points="127.867 202.056 116.202 180.575 127.91 187.079"/><polygon fill="red" stroke="red" points="19.265 105.745 32.078 69.741 32.23 99.971"/><polygon fill="red" stroke="red" points="6.37 126.624 19.265 105.745 19.357 120.818"/><polygon fill="red" stroke="red" points="19.265 105.745 30.91 127.226 19.357 120.818"/><polygon fill="red" stroke="red" points="140.721 181.184 127.867 202.056 127.91 187.079"/><polygon fill="red" stroke="red" points="131.516 44.93 154.969 72.713 131.469 60.076"/><polygon fill="red" stroke="red" points="57.916 43.162 46.273 21.734 57.872 27.984"/><polygon fill="#FFF" stroke="#FFF" points="46.273 21.734 70.788 22.32 57.872 27.984"/><polygon fill="red" stroke="red" points="20.425 48.267 -4.12 47.677 8.886 41.985"/><polygon fill="red" stroke="red" points="70.788 22.32 57.916 43.162 57.872 27.984"/><polygon fill="red" stroke="red" points="-4.12 47.677 7.522 69.147 -3.999 62.83"/><polygon fill="red" stroke="red" points="166.593 109.34 142.02 108.741 154.816 102.958"/><polygon fill="red" stroke="red" points="57.916 43.162 82.442 43.751 69.537 49.449"/><polygon fill="red" stroke="red" points="69.567 64.606 57.916 43.162 69.537 49.449"/><polygon fill="red" stroke="red" points="131.516 44.93 119.841 23.491 131.563 29.746"/><polygon fill="#FFF" stroke="#FFF" points="119.841 23.491 144.378 24.077 131.563 29.746"/><polygon fill="red" stroke="red" points="191.174 109.94 166.593 109.34 179.355 103.556"/><polygon fill="red" stroke="red" points="154.969 72.713 166.593 109.34 154.816 102.958"/><polygon fill="red" stroke="red" points="54.225 170.236 29.663 169.627 42.626 163.754"/><polygon fill="red" stroke="red" points="42.563 148.723 54.225 170.236 42.626 163.754"/><polygon fill="red" stroke="red" points="144.378 24.077 131.516 44.93 131.563 29.746"/><polygon fill="red" stroke="red" points="20.425 48.267 57.916 43.162 32.001 54.57"/><polygon fill="red" stroke="red" points="57.916 43.162 32.078 69.741 32.001 54.57"/><polygon fill="red" stroke="red" points="54.225 170.236 67.121 149.329 67.153 164.361"/><polygon fill="red" stroke="red" points="166.593 109.34 179.569 73.308 179.355 103.556"/><polygon fill="red" stroke="red" points="153.719 130.239 166.593 109.34 166.502 124.423"/><polygon fill="red" stroke="red" points="106.975 44.341 131.516 44.93 118.679 50.63"/><polygon fill="red" stroke="red" points="166.593 109.34 178.303 130.842 166.502 124.423"/><polygon fill="#FFF" stroke="#FFF" points="29.663 169.627 41.323 191.152 29.743 184.635"/><polygon fill="red" stroke="red" points="131.516 44.93 118.648 65.791 118.679 50.63"/><polygon fill="#FFF" stroke="#FFF" points="178.303 130.842 191.174 109.94 191.053 125.025"/><polygon fill="red" stroke="red" points="41.323 191.152 54.225 170.236 54.273 185.246"/><polygon fill="red" stroke="red" points="-5.264 105.146 19.265 105.745 6.262 111.535"/><polygon fill="#FFF" stroke="#FFF" points="6.37 126.624 -5.264 105.146 6.262 111.535"/><polygon fill="#FFF" stroke="#FFF" points="130.468 41.725 56.549 39.952 95.311 22.906"/><polygon fill="red" stroke="red" points="116.259 150.541 127.953 172.064 116.23 165.577"/><polygon fill="red" stroke="red" points="19.265 105.745 6.37 126.624 6.262 111.535"/><polygon fill="red" stroke="red" points="90.471 177.35 54.225 170.236 67.153 164.361"/><polygon fill="red" stroke="red" points="19.265 105.745 43.801 106.344 30.832 112.136"/><polygon fill="red" stroke="red" points="30.91 127.226 19.265 105.745 30.832 112.136"/><polygon fill="red" stroke="red" points="127.953 172.064 140.839 151.147 140.78 166.184"/><polygon fill="red" stroke="red" points="152.544 172.674 127.953 172.064 140.78 166.184"/><polygon fill="red" stroke="red" points="192.448 52.405 167.851 51.813 180.62 46.109"/><polygon fill="red" stroke="red" points="131.516 44.93 167.851 51.813 155.045 57.534"/><polygon fill="red" stroke="red" points="154.969 72.713 131.516 44.93 155.045 57.534"/><polygon fill="red" stroke="red" points="32.078 69.741 19.265 105.745 19.08 75.485"/><polygon fill="red" stroke="red" points="19.265 105.745 7.522 69.147 19.08 75.485"/><polygon fill="red" stroke="red" points="54.225 170.236 77.554 198.304 54.273 185.246"/><polygon fill="red" stroke="red" points="127.953 172.064 90.471 177.35 116.23 165.577"/><polygon fill="red" stroke="red" points="127.953 172.064 139.656 193.603 127.91 187.079"/><polygon fill="red" stroke="red" points="56.687 85.47 68.251 61.487 68.282 76.677"/><polygon fill="red" stroke="red" points="56.549 39.952 68.251 61.487 56.687 85.47"/><polygon fill="#FFF" stroke="#FFF" points="139.656 193.603 152.544 172.674 152.471 187.69"/><polygon fill="red" stroke="red" points="179.569 73.308 192.448 52.405 192.325 67.57"/><polygon fill="red" stroke="red" points="56.687 85.47 55.362 97.608 17.73 102.803"/><polygon fill="red" stroke="red" points="-4.12 47.677 20.425 48.267 7.415 53.978"/><polygon fill="red" stroke="red" points="7.522 69.147 -4.12 47.677 7.415 53.978"/><polygon fill="red" stroke="red" points="55.362 97.608 56.687 85.47 91.679 104.607"/><polygon fill="red" stroke="red" points="56.687 85.47 68.282 76.677 91.679 104.607"/><polygon fill="red" stroke="red" points="102.175 198.919 127.953 172.064 127.91 187.079"/><polygon fill="red" stroke="red" points="54.225 170.236 42.563 148.723 54.176 155.188"/><polygon fill="red" stroke="red" points="142.02 108.741 166.593 109.34 153.794 115.142"/><polygon fill="red" stroke="red" points="130.33 87.258 117.514 77.869 130.468 41.725"/><polygon fill="red" stroke="red" points="67.121 149.329 54.225 170.236 54.176 155.188"/><polygon fill="red" stroke="red" points="166.593 109.34 153.719 130.239 153.794 115.142"/><polygon fill="red" stroke="red" points="130.33 87.258 104.614 83.637 117.514 77.869"/><polygon fill="red" stroke="red" points="166.593 109.34 191.174 109.94 178.409 115.743"/><polygon fill="red" stroke="red" points="178.303 130.842 166.593 109.34 178.409 115.743"/><polygon fill="red" stroke="red" points="130.33 87.258 129.231 99.407 91.679 104.607"/><polygon fill="red" stroke="red" points="91.679 104.607 104.614 83.637 130.33 87.258"/><polygon fill="red" stroke="red" points="29.663 169.627 54.225 170.236 41.258 176.127"/><polygon fill="#FFF" stroke="#FFF" points="41.323 191.152 29.663 169.627 41.258 176.127"/><polygon fill="#FFF" stroke="#FFF" points="191.174 109.94 178.303 130.842 178.409 115.743"/><polygon fill="red" stroke="red" points="129.231 99.407 130.33 87.258 165.696 106.412"/><polygon fill="red" stroke="red" points="54.225 170.236 41.323 191.152 41.258 176.127"/><polygon fill="red" stroke="red" points="179.569 73.308 166.593 109.34 166.775 79.062"/><polygon fill="red" stroke="red" points="166.593 109.34 154.969 72.713 166.775 79.062"/><polygon fill="red" stroke="red" points="127.953 172.064 116.259 150.541 127.996 157.012"/><polygon fill="#FFF" stroke="#FFF" points="17.73 102.803 52.84 167.57 18.012 148.117"/><polygon fill="red" stroke="red" points="140.839 151.147 127.953 172.064 127.996 157.012"/><polygon fill="red" stroke="red" points="54.225 170.236 90.471 177.35 77.535 183.262"/><polygon fill="red" stroke="red" points="77.554 198.304 54.225 170.236 77.535 183.262"/><polygon fill="red" stroke="red" points="91.686 149.935 78.757 140.709 91.679 104.607"/><polygon fill="red" stroke="red" points="91.686 149.935 103.406 126.19 103.394 141.316"/><polygon fill="red" stroke="red" points="91.679 104.607 103.406 126.19 91.686 149.935"/><polygon fill="red" stroke="red" points="91.686 149.935 65.792 146.573 78.757 140.709"/><polygon fill="red" stroke="red" points="127.953 172.064 152.544 172.674 139.714 178.573"/><polygon fill="red" stroke="red" points="139.656 193.603 127.953 172.064 139.714 178.573"/><polygon fill="red" stroke="red" points="167.851 51.813 192.448 52.405 179.676 58.127"/><polygon fill="red" stroke="red" points="52.84 167.57 65.792 146.573 91.686 149.935"/><polygon fill="#FFF" stroke="#FFF" points="152.544 172.674 139.656 193.603 139.714 178.573"/><polygon fill="red" stroke="red" points="192.448 52.405 179.569 73.308 179.676 58.127"/><polygon fill="red" stroke="red" points="91.686 149.935 103.394 141.316 126.887 169.405"/><polygon fill="red" stroke="red" points="90.471 177.35 127.953 172.064 102.186 183.875"/><polygon fill="red" stroke="red" points="127.953 172.064 102.175 198.919 102.186 183.875"/><polygon fill="red" stroke="red" points="77.554 198.304 89.257 219.886 77.574 213.309"/><polygon fill="#FFF" stroke="#FFF" points="31.925 39.361 7.308 38.77 20.334 33.075"/><polygon fill="red" stroke="red" points="89.257 219.886 102.175 198.919 102.165 213.926"/><polygon fill="#FFF" stroke="#FFF" points="126.887 169.405 165.696 106.412 165.426 151.754"/><polygon fill="red" stroke="red" points="18.987 60.299 -5.633 59.705 7.415 53.978"/><polygon fill="red" stroke="red" points="7.308 38.77 18.987 60.299 7.415 53.978"/><polygon fill="red" stroke="red" points="18.987 60.299 31.925 39.361 32.001 54.57"/><polygon fill="#FFF" stroke="#FFF" points="-5.633 59.705 6.044 81.246 -5.51 74.89"/><polygon fill="red" stroke="red" points="6.044 81.246 18.987 60.299 19.08 75.485"/><polygon fill="red" stroke="red" points="55.266 67.236 18.987 60.299 32.001 54.57"/><polygon fill="#FFF" stroke="#FFF" points="179.784 42.909 155.122 42.317 167.944 36.611"/><polygon fill="red" stroke="red" points="18.987 60.299 42.308 88.222 19.08 75.485"/><polygon fill="red" stroke="red" points="79.96 83.039 91.679 104.607 68.282 76.677"/><polygon fill="red" stroke="red" points="42.372 103.404 17.73 102.803 55.362 97.608"/><polygon fill="red" stroke="red" points="117.544 62.677 130.468 41.725 117.514 77.869"/><polygon fill="red" stroke="red" points="155.122 42.317 166.867 63.866 155.045 57.534"/><polygon fill="red" stroke="red" points="55.362 97.608 91.679 104.607 67.022 104.005"/><polygon fill="red" stroke="red" points="89.257 219.886 77.554 198.304 89.251 204.865"/><polygon fill="red" stroke="red" points="166.867 63.866 179.784 42.909 179.676 58.127"/><polygon fill="red" stroke="red" points="191.54 64.462 166.867 63.866 179.676 58.127"/><polygon fill="red" stroke="red" points="102.175 198.919 89.257 219.886 89.251 204.865"/><polygon fill="red" stroke="red" points="166.867 63.866 129.32 69.026 155.045 57.534"/><polygon fill="red" stroke="red" points="18.987 60.299 7.308 38.77 18.894 45.074"/><polygon fill="#FFF" stroke="#FFF" points="7.308 38.77 31.925 39.361 18.894 45.074"/><polygon fill="red" stroke="red" points="166.867 63.866 178.621 85.432 166.775 79.062"/><polygon fill="red" stroke="red" points="116.344 105.208 91.679 104.607 129.231 99.407"/><polygon fill="red" stroke="red" points="31.925 39.361 18.987 60.299 18.894 45.074"/><polygon fill="red" stroke="red" points="129.231 99.407 165.696 106.412 141.016 105.81"/><polygon fill="#FFF" stroke="#FFF" points="178.621 85.432 191.54 64.462 191.417 79.659"/><polygon fill="red" stroke="red" points="-5.633 59.705 18.987 60.299 5.935 66.044"/><polygon fill="#FFF" stroke="#FFF" points="6.044 81.246 -5.633 59.705 5.935 66.044"/><polygon fill="red" stroke="red" points="141.075 90.622 166.867 63.866 166.775 79.062"/><polygon fill="red" stroke="red" points="78.738 125.585 91.679 104.607 78.757 140.709"/><polygon fill="red" stroke="red" points="18.987 60.299 6.044 81.246 5.935 66.044"/><polygon fill="red" stroke="red" points="68.251 61.487 56.549 39.952 79.944 67.833"/><polygon fill="red" stroke="red" points="115.142 147.79 126.887 169.405 103.394 141.316"/><polygon fill="red" stroke="red" points="79.944 67.833 55.266 67.236 68.251 61.487"/><polygon fill="red" stroke="red" points="18.987 60.299 55.266 67.236 42.244 73.003"/><polygon fill="red" stroke="red" points="42.308 88.222 18.987 60.299 42.244 73.003"/><polygon fill="red" stroke="red" points="104.628 68.429 130.468 41.725 117.544 62.677"/><polygon fill="red" stroke="red" points="166.867 63.866 155.122 42.317 166.959 48.633"/><polygon fill="#FFF" stroke="#FFF" points="155.122 42.317 179.784 42.909 166.959 48.633"/><polygon fill="red" stroke="red" points="91.672 58.938 79.944 67.833 56.549 39.952"/><polygon fill="#FFF" stroke="#FFF" points="56.549 39.952 130.468 41.725 91.672 58.938"/><polygon fill="red" stroke="red" points="79.944 67.833 91.679 104.607 79.96 83.039"/><polygon fill="red" stroke="red" points="89.246 189.807 64.56 189.192 77.535 183.262"/><polygon fill="red" stroke="red" points="129.32 69.026 104.628 68.429 117.544 62.677"/><polygon fill="red" stroke="red" points="66.989 88.822 79.944 67.833 79.96 83.039"/><polygon fill="red" stroke="red" points="179.784 42.909 166.867 63.866 166.959 48.633"/><polygon fill="red" stroke="red" points="42.308 88.222 54.028 109.82 42.372 103.404"/><polygon fill="red" stroke="red" points="104.614 83.637 91.679 104.607 104.628 68.429"/><polygon fill="red" stroke="red" points="113.94 190.422 89.246 189.807 102.186 183.875"/><polygon fill="red" stroke="red" points="77.495 153.064 89.246 189.807 77.535 183.262"/><polygon fill="#FFF" stroke="#FFF" points="64.56 189.192 76.29 210.829 64.596 204.249"/><polygon fill="red" stroke="red" points="104.628 68.429 116.372 90.022 104.614 83.637"/><polygon fill="red" stroke="red" points="67.022 104.005 91.679 104.607 54.028 109.82"/><polygon fill="red" stroke="red" points="54.028 109.82 66.989 88.822 67.022 104.005"/><polygon fill="red" stroke="red" points="166.867 63.866 191.54 64.462 178.727 70.22"/><polygon fill="red" stroke="red" points="178.621 85.432 166.867 63.866 178.727 70.22"/><polygon fill="red" stroke="red" points="89.246 189.807 102.208 153.674 102.186 183.875"/><polygon fill="red" stroke="red" points="104.628 68.429 91.672 58.938 130.468 41.725"/><polygon fill="red" stroke="red" points="76.29 210.829 89.246 189.807 89.251 204.865"/><polygon fill="red" stroke="red" points="89.246 189.807 100.986 211.447 89.251 204.865"/><polygon fill="#FFF" stroke="#FFF" points="191.54 64.462 178.621 85.432 178.727 70.22"/><polygon fill="red" stroke="red" points="65.757 131.434 91.679 104.607 78.738 125.585"/><polygon fill="#FFF" stroke="#FFF" points="100.986 211.447 113.94 190.422 113.914 205.482"/><polygon fill="red" stroke="red" points="103.406 126.19 91.679 104.607 115.17 132.648"/><polygon fill="red" stroke="red" points="129.32 69.026 166.867 63.866 141.135 75.396"/><polygon fill="red" stroke="red" points="166.867 63.866 141.075 90.622 141.135 75.396"/><polygon fill="red" stroke="red" points="116.372 90.022 128.125 111.63 116.344 105.208"/><polygon fill="red" stroke="red" points="17.73 102.803 42.372 103.404 52.687 122.108"/><polygon fill="#FFF" stroke="#FFF" points="52.84 167.57 17.73 102.803 52.687 122.108"/><polygon fill="red" stroke="red" points="90.46 132.041 65.757 131.434 78.738 125.585"/><polygon fill="red" stroke="red" points="141.016 105.81 165.696 106.412 128.125 111.63"/><polygon fill="red" stroke="red" points="128.125 111.63 141.075 90.622 141.016 105.81"/><polygon fill="red" stroke="red" points="52.687 122.108 42.372 103.404 54.028 109.82"/><polygon fill="red" stroke="red" points="65.792 146.573 52.84 167.57 65.757 131.434"/><polygon fill="red" stroke="red" points="115.17 132.648 90.46 132.041 103.406 126.19"/><polygon fill="red" stroke="red" points="91.672 58.938 104.628 68.429 91.679 104.607"/><polygon fill="red" stroke="red" points="79.944 67.833 91.672 58.938 91.679 104.607"/><polygon fill="red" stroke="red" points="65.757 131.434 77.495 153.064 65.792 146.573"/><polygon fill="red" stroke="red" points="52.687 122.108 54.028 109.82 91.679 104.607"/><polygon fill="red" stroke="red" points="65.757 131.434 52.687 122.108 91.679 104.607"/><polygon fill="red" stroke="red" points="91.679 104.607 116.344 105.208 127.013 123.929"/><polygon fill="red" stroke="red" points="127.013 123.929 115.17 132.648 91.679 104.607"/><polygon fill="red" stroke="red" points="115.17 132.648 126.887 169.405 115.142 147.79"/><polygon fill="red" stroke="red" points="102.208 153.674 115.17 132.648 115.142 147.79"/><polygon fill="red" stroke="red" points="55.266 67.236 79.944 67.833 66.956 73.601"/><polygon fill="red" stroke="red" points="127.013 123.929 116.344 105.208 128.125 111.63"/><polygon fill="red" stroke="red" points="79.944 67.833 66.989 88.822 66.956 73.601"/><polygon fill="red" stroke="red" points="54.028 109.82 42.308 88.222 53.979 94.622"/><polygon fill="red" stroke="red" points="127.013 123.929 128.125 111.63 165.696 106.412"/><polygon fill="#FFF" stroke="#FFF" points="165.696 106.412 126.887 169.405 127.013 123.929"/><polygon fill="red" stroke="red" points="64.56 189.192 89.246 189.807 76.268 195.756"/><polygon fill="#FFF" stroke="#FFF" points="76.29 210.829 64.56 189.192 76.268 195.756"/><polygon fill="red" stroke="red" points="104.628 68.429 129.32 69.026 116.401 74.797"/><polygon fill="red" stroke="red" points="116.372 90.022 104.628 68.429 116.401 74.797"/><polygon fill="red" stroke="red" points="66.989 88.822 54.028 109.82 53.979 94.622"/><polygon fill="red" stroke="red" points="52.687 122.108 65.757 131.434 52.84 167.57"/><polygon fill="red" stroke="red" points="89.246 189.807 76.29 210.829 76.268 195.756"/><polygon fill="red" stroke="red" points="89.246 189.807 113.94 190.422 100.996 196.373"/><polygon fill="red" stroke="red" points="100.986 211.447 89.246 189.807 100.996 196.373"/><polygon fill="#FFF" stroke="#FFF" points="113.94 190.422 100.986 211.447 100.996 196.373"/><polygon fill="red" stroke="red" points="102.208 153.674 89.246 189.807 89.236 159.576"/><polygon fill="red" stroke="red" points="89.246 189.807 77.495 153.064 89.236 159.576"/><polygon fill="red" stroke="red" points="128.125 111.63 116.372 90.022 128.169 96.427"/><polygon fill="red" stroke="red" points="141.075 90.622 128.125 111.63 128.169 96.427"/><polygon fill="red" stroke="red" points="115.17 132.648 127.013 123.929 126.887 169.405"/><polygon fill="red" stroke="red" points="65.757 131.434 90.46 132.041 77.475 137.909"/><polygon fill="red" stroke="red" points="77.495 153.064 65.757 131.434 77.475 137.909"/><polygon fill="red" stroke="red" points="90.46 132.041 115.17 132.648 102.219 138.517"/><polygon fill="red" stroke="red" points="115.17 132.648 102.208 153.674 102.219 138.517"/><polygon fill="#FFF" stroke="#FFF" points="66.922 58.341 42.18 57.745 55.219 51.994"/><polygon fill="red" stroke="red" points="53.929 79.385 29.184 78.786 42.244 73.003"/><polygon fill="red" stroke="red" points="42.18 57.745 53.929 79.385 42.244 73.003"/><polygon fill="red" stroke="red" points="53.929 79.385 66.922 58.341 66.956 73.601"/><polygon fill="#FFF" stroke="#FFF" points="29.184 78.786 40.931 100.439 29.264 94.02"/><polygon fill="#FFF" stroke="#FFF" points="141.195 60.132 116.43 59.535 129.365 53.778"/><polygon fill="red" stroke="red" points="40.931 100.439 53.929 79.385 53.979 94.622"/><polygon fill="red" stroke="red" points="116.43 59.535 128.212 81.186 116.401 74.797"/><polygon fill="red" stroke="red" points="90.448 86.391 53.929 79.385 66.956 73.601"/><polygon fill="red" stroke="red" points="128.212 81.186 141.195 60.132 141.135 75.396"/><polygon fill="red" stroke="red" points="152.988 81.786 128.212 81.186 141.135 75.396"/><polygon fill="red" stroke="red" points="53.929 79.385 77.434 107.483 53.979 94.622"/><polygon fill="red" stroke="red" points="128.212 81.186 90.448 86.391 116.401 74.797"/><polygon fill="red" stroke="red" points="128.212 81.186 140.003 102.853 128.169 96.427"/><polygon fill="#FFF" stroke="#FFF" points="140.003 102.853 152.988 81.786 152.914 97.029"/><polygon fill="red" stroke="red" points="102.241 108.089 128.212 81.186 128.169 96.427"/><polygon fill="red" stroke="red" points="89.23 144.404 64.451 143.794 77.475 137.909"/><polygon fill="red" stroke="red" points="53.929 79.385 42.18 57.745 53.88 64.111"/><polygon fill="#FFF" stroke="#FFF" points="42.18 57.745 66.922 58.341 53.88 64.111"/><polygon fill="red" stroke="red" points="114.017 145.015 89.23 144.404 102.219 138.517"/><polygon fill="red" stroke="red" points="77.434 107.483 89.23 144.404 77.475 137.909"/><polygon fill="#FFF" stroke="#FFF" points="64.451 143.794 76.225 165.496 64.488 158.964"/><polygon fill="red" stroke="red" points="66.922 58.341 53.929 79.385 53.88 64.111"/><polygon fill="red" stroke="red" points="89.23 144.404 102.241 108.089 102.219 138.517"/><polygon fill="red" stroke="red" points="76.225 165.496 89.23 144.404 89.236 159.576"/><polygon fill="red" stroke="red" points="29.184 78.786 53.929 79.385 40.865 85.187"/><polygon fill="#FFF" stroke="#FFF" points="40.931 100.439 29.184 78.786 40.865 85.187"/><polygon fill="red" stroke="red" points="89.23 144.404 101.015 166.11 89.236 159.576"/><polygon fill="red" stroke="red" points="53.929 79.385 40.931 100.439 40.865 85.187"/><polygon fill="#FFF" stroke="#FFF" points="101.015 166.11 114.017 145.015 113.991 160.188"/><polygon fill="red" stroke="red" points="128.212 81.186 116.43 59.535 128.256 65.906"/><polygon fill="#FFF" stroke="#FFF" points="116.43 59.535 141.195 60.132 128.256 65.906"/><polygon fill="red" stroke="red" points="141.195 60.132 128.212 81.186 128.256 65.906"/><polygon fill="red" stroke="red" points="53.929 79.385 90.448 86.391 77.414 92.213"/><polygon fill="red" stroke="red" points="77.434 107.483 53.929 79.385 77.414 92.213"/><polygon fill="red" stroke="red" points="128.212 81.186 152.988 81.786 140.062 87.595"/><polygon fill="red" stroke="red" points="140.003 102.853 128.212 81.186 140.062 87.595"/><polygon fill="#FFF" stroke="#FFF" points="152.988 81.786 140.003 102.853 140.062 87.595"/><polygon fill="red" stroke="red" points="90.448 86.391 128.212 81.186 102.252 92.817"/><polygon fill="red" stroke="red" points="128.212 81.186 102.241 108.089 102.252 92.817"/><polygon fill="red" stroke="red" points="64.451 143.794 89.23 144.404 76.203 150.309"/><polygon fill="#FFF" stroke="#FFF" points="76.225 165.496 64.451 143.794 76.203 150.309"/><polygon fill="red" stroke="red" points="89.23 144.404 76.225 165.496 76.203 150.309"/><polygon fill="red" stroke="red" points="89.23 144.404 114.017 145.015 101.024 150.921"/><polygon fill="red" stroke="red" points="101.015 166.11 89.23 144.404 101.024 150.921"/><polygon fill="#FFF" stroke="#FFF" points="114.017 145.015 101.015 166.11 101.024 150.921"/><polygon fill="red" stroke="red" points="102.241 108.089 89.23 144.404 89.219 113.946"/><polygon fill="red" stroke="red" points="89.23 144.404 77.434 107.483 89.219 113.946"/><polygon fill="#FFF" stroke="#FFF" points="102.263 77.507 77.394 76.905 90.444 71.098"/><polygon fill="red" stroke="red" points="89.214 98.659 64.342 98.053 77.414 92.213"/><polygon fill="red" stroke="red" points="77.394 76.905 89.214 98.659 77.414 92.213"/><polygon fill="red" stroke="red" points="89.214 98.659 102.263 77.507 102.252 92.817"/><polygon fill="red" stroke="red" points="114.094 99.265 89.214 98.659 102.252 92.817"/><polygon fill="#FFF" stroke="#FFF" points="64.342 98.053 76.159 119.82 64.378 113.338"/><polygon fill="red" stroke="red" points="76.159 119.82 89.214 98.659 89.219 113.946"/><polygon fill="red" stroke="red" points="89.214 98.659 101.043 120.429 89.219 113.946"/><polygon fill="#FFF" stroke="#FFF" points="101.043 120.429 114.094 99.265 114.068 114.553"/><polygon fill="red" stroke="red" points="89.214 98.659 77.394 76.905 89.209 83.334"/><polygon fill="#FFF" stroke="#FFF" points="77.394 76.905 102.263 77.507 89.209 83.334"/><polygon fill="red" stroke="red" points="102.263 77.507 89.214 98.659 89.209 83.334"/><polygon fill="red" stroke="red" points="64.342 98.053 89.214 98.659 76.138 104.518"/><polygon fill="#FFF" stroke="#FFF" points="76.159 119.82 64.342 98.053 76.138 104.518"/><polygon fill="red" stroke="red" points="89.214 98.659 76.159 119.82 76.138 104.518"/><polygon fill="red" stroke="red" points="89.214 98.659 114.094 99.265 101.053 105.125"/><polygon fill="red" stroke="red" points="101.043 120.429 89.214 98.659 101.053 105.125"/><polygon fill="#FFF" stroke="#FFF" points="114.094 99.265 101.043 120.429 101.053 105.125"/></svg>